<svg width="65.396866mm" height="18.352478mm" viewBox="0 0 65.396866 18.352478" version="1.1" xmlns="http://www.w3.org/2000/svg">
  <defs id="defs1" />
  <g id="layer1" transform="translate(-54.023495,-57.125324)">
    <g id="g4" transform="matrix(0.26458333,0,0,0.26458333,-128.74969,-43.635608)" style="fill:#e2653b;fill-opacity:1">
      <path class="st0" d="m 724.03,412.07 8.91,-21.19 c 0.39,-0.93 -0.29,-1.97 -1.31,-1.97 h -26.66 c -0.78,0 -1.42,0.63 -1.42,1.42 v 47.44 c 0,0.78 0.63,1.42 1.42,1.42 h 17.77 c 1.2,0 2.26,-0.75 2.67,-1.88 l 7.67,-21.38 c 0.33,-0.92 -0.35,-1.9 -1.33,-1.9 h -6.4 c -1.01,0 -1.7,-1.03 -1.31,-1.97 v 0 z" id="path3" style="fill:#e2653b;fill-opacity:1" />
      <path class="st0" d="M 746.58,390.56 741,402.65 c -0.43,0.94 0.25,2.01 1.29,2.01 h 6.94 c 1.17,0 1.84,1.34 1.13,2.27 l -22.76,29.98 c -0.71,0.93 -0.04,2.27 1.13,2.27 h 26.15 c 0.78,0 1.42,-0.63 1.42,-1.42 v -47.44 c 0,-0.78 -0.63,-1.42 -1.42,-1.42 h -5.72 c -1.11,0 -2.11,0.64 -2.57,1.65 h -0.01 z" id="path4" style="fill:#e2653b;fill-opacity:1" />
    </g>
    <g class="st2" id="g112" style="isolation:isolate" transform="matrix(0.26458333,0,0,0.26458333,-128.74969,-43.635608)">
      <g class="st2" id="g111" style="isolation:isolate">
        <path class="st1" d="m 783.07,418.25 c 0.61,0.4 1.72,0.85 2.79,0.85 1.54,0 2.31,-0.8 2.31,-1.91 0,-1.11 -0.58,-1.67 -2.15,-2.39 -2.15,-0.9 -3.18,-2.12 -3.18,-3.64 0,-2.07 1.64,-3.71 4.17,-3.71 1.22,0 2.23,0.34 2.89,0.77 l -0.56,1.65 c -0.5,-0.32 -1.33,-0.72 -2.36,-0.72 -1.3,0 -1.99,0.8 -1.99,1.72 0,1.01 0.64,1.49 2.18,2.2 2.02,0.88 3.16,1.99 3.16,3.87 0,2.36 -1.75,3.85 -4.51,3.85 -1.27,0 -2.49,-0.35 -3.29,-0.85 l 0.56,-1.7 z" id="path100" style="fill:#1d1d1b" />
        <path class="st1" d="m 793.04,411.86 c 0,-1.75 -0.05,-3.03 -0.11,-4.14 h 2.02 l 0.11,2.02 h 0.05 c 0.88,-1.49 2.26,-2.28 4.01,-2.28 2.84,0 4.94,2.55 4.94,6.55 0,4.67 -2.57,6.82 -5.28,6.82 -1.57,0 -2.81,-0.74 -3.45,-1.86 h -0.05 v 6.79 h -2.23 v -13.9 z m 2.23,3.63 c 0,0.34 0.03,0.69 0.11,0.98 0.42,1.7 1.67,2.57 3,2.57 2.26,0 3.4,-2.12 3.4,-4.96 0,-2.6 -1.11,-4.8 -3.34,-4.8 -1.38,0 -2.68,1.14 -3.03,2.71 -0.08,0.32 -0.13,0.64 -0.13,0.96 v 2.55 z" id="path101" style="fill:#1d1d1b" />
        <path class="st1" d="m 808.14,414.48 c 0.05,3.4 1.91,4.56 3.98,4.56 1.43,0 2.39,-0.29 3.13,-0.61 l 0.4,1.62 c -0.8,0.37 -2.12,0.74 -3.85,0.74 -3.69,0 -5.84,-2.6 -5.84,-6.47 0,-3.87 2.15,-6.87 5.55,-6.87 3.71,0 4.78,3.4 4.78,5.92 0,0.5 -0.03,0.85 -0.05,1.12 h -8.09 z m 6,-1.62 c 0.03,-1.8 -0.72,-3.77 -2.84,-3.77 -2.12,0 -2.97,2.1 -3.13,3.77 z" id="path102" style="fill:#1d1d1b" />
        <path class="st1" d="m 820.34,414.48 c 0.05,3.4 1.91,4.56 3.98,4.56 1.43,0 2.39,-0.29 3.13,-0.61 l 0.4,1.62 c -0.8,0.37 -2.12,0.74 -3.85,0.74 -3.69,0 -5.84,-2.6 -5.84,-6.47 0,-3.87 2.15,-6.87 5.55,-6.87 3.71,0 4.78,3.4 4.78,5.92 0,0.5 -0.03,0.85 -0.05,1.12 h -8.09 z m 6,-1.62 c 0.03,-1.8 -0.72,-3.77 -2.84,-3.77 -2.12,0 -2.97,2.1 -3.13,3.77 z" id="path103" style="fill:#1d1d1b" />
        <path class="st1" d="m 841.28,401.85 v 15.47 c 0,1.06 0.05,2.39 0.11,3.24 h -1.99 l -0.11,-2.04 h -0.08 c -0.61,1.27 -1.96,2.31 -3.85,2.31 -2.84,0 -4.99,-2.55 -4.99,-6.53 0,-4.38 2.44,-6.85 5.2,-6.85 1.67,0 2.87,0.8 3.42,1.83 h 0.05 v -7.43 h 2.23 z m -2.23,10.99 c 0,-0.29 -0.03,-0.64 -0.08,-0.96 -0.29,-1.43 -1.41,-2.63 -2.95,-2.63 -2.2,0 -3.37,2.2 -3.37,4.94 0,2.74 1.11,4.8 3.32,4.8 1.27,0 2.52,-0.82 2.97,-2.6 0.08,-0.29 0.11,-0.61 0.11,-0.96 v -2.6 z" id="path104" style="fill:#1d1d1b" />
        <path class="st1" d="m 844.72,420.56 c 0.05,-0.85 0.11,-2.18 0.11,-3.24 v -15.47 h 2.23 v 7.77 h 0.05 c 0.77,-1.41 2.1,-2.18 3.87,-2.18 2.84,0 4.86,2.55 4.86,6.53 0,4.62 -2.63,6.85 -5.23,6.85 -1.7,0 -2.95,-0.74 -3.77,-2.26 h -0.08 l -0.11,1.99 h -1.94 z m 2.34,-4.96 c 0,0.29 0.03,0.58 0.11,0.82 0.45,1.72 1.67,2.6 3.03,2.6 2.2,0 3.4,-2.07 3.4,-4.94 0,-2.6 -1.11,-4.83 -3.37,-4.83 -1.38,0 -2.65,1.14 -3.05,2.71 -0.05,0.29 -0.11,0.61 -0.11,0.96 v 2.68 z" id="path105" style="fill:#1d1d1b" />
        <path class="st1" d="m 861.07,404.19 c 0,0.8 -0.53,1.41 -1.41,1.41 -0.8,0 -1.35,-0.61 -1.33,-1.41 -0.03,-0.8 0.56,-1.41 1.35,-1.41 0.85,0 1.38,0.58 1.38,1.41 z m -2.5,16.37 v -12.84 h 2.26 v 12.84 z" id="path106" style="fill:#1d1d1b" />
        <path class="st1" d="m 867.12,404.11 v 3.61 h 3.08 v 1.72 h -3.08 v 7.11 c 0,1.62 0.48,2.39 1.62,2.39 0.53,0 0.9,-0.05 1.19,-0.13 l 0.11,1.7 c -0.42,0.19 -1.06,0.29 -1.91,0.29 -0.98,0 -1.83,-0.32 -2.36,-0.93 -0.61,-0.66 -0.88,-1.73 -0.88,-3.29 v -7.14 h -1.86 v -1.72 h 1.86 v -3 z" id="path107" style="fill:#1d1d1b" />
        <path class="st1" d="m 872.24,418.25 c 0.61,0.4 1.72,0.85 2.79,0.85 1.54,0 2.31,-0.8 2.31,-1.91 0,-1.11 -0.58,-1.67 -2.15,-2.39 -2.15,-0.9 -3.18,-2.12 -3.18,-3.64 0,-2.07 1.64,-3.71 4.17,-3.71 1.22,0 2.23,0.34 2.89,0.77 l -0.56,1.65 c -0.5,-0.32 -1.33,-0.72 -2.36,-0.72 -1.3,0 -1.99,0.8 -1.99,1.72 0,1.01 0.64,1.49 2.18,2.2 2.02,0.88 3.16,1.99 3.16,3.87 0,2.36 -1.75,3.85 -4.51,3.85 -1.27,0 -2.49,-0.35 -3.29,-0.85 l 0.56,-1.7 z" id="path108" style="fill:#1d1d1b" />
        <path class="st1" d="m 881.47,419.21 c 0,-0.96 0.64,-1.64 1.51,-1.64 0.87,0 1.51,0.66 1.51,1.64 0,0.93 -0.58,1.62 -1.51,1.62 -0.88,0 -1.51,-0.69 -1.51,-1.62 z" id="path109" style="fill:#1d1d1b" />
        <path class="st1" d="m 889.77,404.19 c 0,0.8 -0.53,1.41 -1.41,1.41 -0.8,0 -1.35,-0.61 -1.33,-1.41 -0.03,-0.8 0.56,-1.41 1.35,-1.41 0.85,0 1.38,0.58 1.38,1.41 z m -2.49,16.37 v -12.84 h 2.26 v 12.84 z" id="path110" style="fill:#1d1d1b" />
        <path class="st1" d="m 903.6,414.06 c 0,4.8 -3,6.77 -5.76,6.77 -3.13,0 -5.57,-2.42 -5.57,-6.61 0,-4.41 2.63,-6.77 5.76,-6.77 3.13,0 5.57,2.52 5.57,6.61 z m -9.05,0.11 c 0,2.6 1.25,4.96 3.4,4.96 2.15,0 3.37,-2.39 3.37,-5.02 0,-2.12 -0.88,-4.94 -3.37,-4.94 -2.49,0 -3.4,2.68 -3.4,4.99 z" id="path111" style="fill:#1d1d1b" />
      </g>
    </g>
  </g>
</svg>
